<svg xmlns="http://www.w3.org/2000/svg" xmlns:xlink="http://www.w3.org/1999/xlink" width="100" height="100" viewBox="0 0 100 100"><g transform="translate(50 50) scale(0.69 0.69) rotate(-180) translate(-50 -50)" style="fill:#90d5b1"><svg fill="#90d5b1" xmlns="http://www.w3.org/2000/svg" xmlns:xlink="http://www.w3.org/1999/xlink" viewBox="0 0 20 20" version="1.1" x="0px" y="0px"><title>arrow-right</title><desc>Created with Sketch.</desc><g stroke="none" stroke-width="1" fill="none" fill-rule="evenodd"><path d="M3.0127369,9.83893785 L3.00205813,9.94278424 L3.012,10 L3,10.0000424 L3.00492538,10.0982284 C3.00602877,10.1087235 3.00753704,10.1212706 3.00979943,10.1400914 L3.04087869,10.2832473 L3.09164749,10.417687 L3.13679272,10.5045353 L3.19469491,10.5929298 C3.22489892,10.633917 3.25707773,10.6709595 3.29614783,10.7093123 L8.29282119,15.7070348 C8.6833057,16.0975988 9.31647068,16.0976633 9.70703474,15.7071788 L9.79023295,15.6129799 C10.0952978,15.2207198 10.067626,14.6534859 9.7071788,14.2929652 L6.414,10.999 L16.0000888,10.9989813 C16.5523581,10.9989344 17,10.551202 17,9.99893883 L16.9932712,9.88231366 C16.935497,9.38496002 16.5127617,8.99893774 15.9999151,8.99898128 L6.413,8.999 L9.70710222,5.70609261 C10.0976311,5.31556377 10.0976311,4.68239879 9.70710678,4.2918745 C9.31658248,3.9013502 8.68341751,3.9013502 8.29289321,4.2918745 L3.28414236,9.30096797 L3.22910231,9.36257721 L3.17849473,9.42929028 L3.13315351,9.50093696 L3.09492752,9.57421419 C3.08686745,9.5910578 3.08080263,9.60593384 3.068673,9.6356859 L3.03389124,9.74146787 L3.0127369,9.83893785 Z" fill="#90d5b1" fill-rule="nonzero" transform="translate(10.000000, 9.999491) scale(-1, 1) translate(-10.000000, -9.999491) "></path></g></svg></g></svg>