<svg xmlns="http://www.w3.org/2000/svg" xmlns:xlink="http://www.w3.org/1999/xlink" version="1.1" x="0px" y="0px" viewBox="0 0 100 100" style="enable-background:new 0 0 100 100;" xml:space="preserve"><g><rect x="20.9" y="43.4" transform="matrix(0.7071 -0.7071 0.7071 0.7071 -21.307 44.3679)" width="44.1" height="9"></rect><rect x="30.1" y="52.6" transform="matrix(0.7071 -0.7071 0.7071 0.7071 -25.1145 53.5603)" width="44.1" height="9"></rect><path d="M19,78.7c-0.1,0.6,0.1,1.3,0.6,1.8c0.4,0.4,0.9,0.6,1.4,0.6c0.1,0,0.2,0,0.4,0l15.2-2.8L21.7,63.5L19,78.7z"></path><path d="M72.3,20.7c-1.1-1.1-2.7-1.8-4.3-1.8s-3.1,0.6-4.3,1.8l-5.6,5.6l15.6,15.6l5.6-5.6c1.1-1.1,1.8-2.7,1.8-4.3   c0-1.6-0.6-3.1-1.8-4.3L72.3,20.7z"></path></g></svg>