<svg height='100px' width='100px'  fill="#ffffff" xmlns="http://www.w3.org/2000/svg" xmlns:xlink="http://www.w3.org/1999/xlink" xml:space="preserve" version="1.1" style="shape-rendering:geometricPrecision;text-rendering:geometricPrecision;image-rendering:optimizeQuality;" viewBox="0 0 1.783 1.537" x="0px" y="0px" fill-rule="evenodd" clip-rule="evenodd"><defs><style type="text/css">
   
    .fil0 {fill:#ffffff;fill-rule:nonzero}
   
  </style></defs><g><path class="fil0" d="M0.261 1.537c-0.09,0 -0.173,-0.049 -0.22,-0.126 -0.053,-0.087 -0.053,-0.191 -0.009,-0.282l0.583 -0.954c0.066,-0.097 0.152,-0.175 0.277,-0.175 0.125,0 0.211,0.078 0.277,0.175l0.58 0.949c0.048,0.089 0.046,0.201 -0.007,0.287 -0.047,0.077 -0.129,0.126 -0.22,0.126l-1.261 0zm0.631 -0.498c0.053,0 0.095,0.043 0.095,0.096 0,0.053 -0.042,0.095 -0.095,0.095 -0.053,0 -0.096,-0.042 -0.096,-0.095 0,-0.053 0.043,-0.096 0.096,-0.096zm0 -0.095c-0.035,0 -0.06,-0.029 -0.064,-0.064l-0.032 -0.287c-0.005,-0.049 0.047,-0.095 0.096,-0.095 0.049,0 0.101,0.046 0.095,0.095l-0.032 0.287c-0.003,0.034 -0.027,0.064 -0.063,0.064zm-0.631 0.466l1.261 0c0.047,0 0.087,-0.026 0.112,-0.066 0.029,-0.048 0.028,-0.106 0.005,-0.156l-0.576 -0.942c-0.041,-0.06 -0.092,-0.119 -0.171,-0.119 -0.079,0 -0.131,0.059 -0.172,0.119l-0.575 0.942c-0.024,0.051 -0.025,0.108 0.005,0.156 0.024,0.04 0.064,0.066 0.111,0.066z"></path></g></svg>