<svg xmlns="http://www.w3.org/2000/svg" viewBox="0 0 512 512" x="0px" y="0px"><title>athlete- user- avatar- kid- girl- costume</title><g><path d="M256,264a16.019,16.019,0,0,1-16-16H224a32,32,0,0,0,64,0H272A16.019,16.019,0,0,1,256,264Z"></path><path d="M442,160H432v-8.111A18.025,18.025,0,0,0,448,134V90a18.026,18.026,0,0,0-16.2-17.91A61.082,61.082,0,0,0,371,16H336V32h35a45.065,45.065,0,0,1,44.723,40H96.277A45.065,45.065,0,0,1,141,32H320V16H141A61.082,61.082,0,0,0,80.2,72.09,18.026,18.026,0,0,0,64,90v44a18.025,18.025,0,0,0,16,17.889V160H70a38.043,38.043,0,0,0-38,38v20a38.043,38.043,0,0,0,38,38H80v16a8,8,0,0,0,5.888,7.718,68.154,68.154,0,0,0,37.156,35.525A37.875,37.875,0,0,0,112,342v10h16V342a22.025,22.025,0,0,1,22-22h.556l-6.447,38.685A8.056,8.056,0,0,0,144,360v3.29q0,2.37.188,4.71H112a8,8,0,0,0-8,8v40a8,8,0,0,0,8,8v8a48.055,48.055,0,0,0,48,48v8a8,8,0,0,0,8,8H344a8,8,0,0,0,8-8v-8a48.055,48.055,0,0,0,48-48v-8a8,8,0,0,0,8-8V376a8,8,0,0,0-8-8V342a37.875,37.875,0,0,0-11.044-26.757,68.154,68.154,0,0,0,37.156-35.525A8,8,0,0,0,432,272V256h10a38.043,38.043,0,0,0,38-38V198A38.043,38.043,0,0,0,442,160Zm-82-8h56V264h-4a52.059,52.059,0,0,1-52-52ZM80,90a2,2,0,0,1,2-2H430a2,2,0,0,1,2,2v44a2,2,0,0,1-2,2H82a2,2,0,0,1-2-2ZM96,264V152h56v60a52.059,52.059,0,0,1-52,52ZM70,240a22.025,22.025,0,0,1-22-22V198a22.025,22.025,0,0,1,22-22H80v64Zm50,144h27.79A57.776,57.776,0,0,0,160,403.29V408H120Zm8,48v-8h32v40A32.036,32.036,0,0,1,128,432Zm208,48H288v-4a28.032,28.032,0,0,0-28-28H232V424h56V408H224a8,8,0,0,0-8,8v40a8,8,0,0,0,8,8h36a12.013,12.013,0,0,1,12,12v4H176V400a8,8,0,0,0-2.343-5.657l-1.356-1.355a41.728,41.728,0,0,1-12.3-29.7v-2.628L166.777,320h17.339A68.088,68.088,0,0,0,252,384h8a68.088,68.088,0,0,0,67.884-64h17.339L352,360.662v2.628a41.728,41.728,0,0,1-12.3,29.7l-1.356,1.355A8,8,0,0,0,336,400ZM200.152,320h111.7A52.07,52.07,0,0,1,260,368h-8A52.07,52.07,0,0,1,200.152,320ZM392,384v24H352v-4.71A57.776,57.776,0,0,0,364.21,384Zm-8,48a32.036,32.036,0,0,1-32,32V424h32Zm-16.188-64q.188-2.339.188-4.71V360a8.056,8.056,0,0,0-.109-1.315L361.444,320H362a22.025,22.025,0,0,1,22,22v26ZM364,304H148a52.125,52.125,0,0,1-43.909-24.122A68.088,68.088,0,0,0,168,212V197.639A25.863,25.863,0,0,1,184,192a24.027,24.027,0,0,1,24,24h16a40.045,40.045,0,0,0-40-40,41.526,41.526,0,0,0-16,3.24V152H344v27.24A41.526,41.526,0,0,0,328,176a40.045,40.045,0,0,0-40,40h16a24.027,24.027,0,0,1,24-24,25.863,25.863,0,0,1,16,5.639V212a68.088,68.088,0,0,0,63.909,67.878A52.125,52.125,0,0,1,364,304Zm100-86a22.025,22.025,0,0,1-22,22H432V176h10a22.025,22.025,0,0,1,22,22Z"></path></g></svg>