<svg xmlns="http://www.w3.org/2000/svg" viewBox="0 0 64 64" x="0px" y="0px">
  <title>Outline Football Icon Set</title>
  <path
    d="M58.6,52.92l-6.24-8.73,5.7-4.56-1.74-.58c-2-.65-3.94-1.23-5.91-1.72A51.19,51.19,0,0,0,55,16V15H54c-8.91,0-16.86-2.87-21.26-7.68L32,6.52l-.74.8c-4.6,5-12,7.68-21.26,7.68H9v1a51.19,51.19,0,0,0,4.59,21.33c-2,.49-3.94,1.07-5.91,1.72l-1.74.58,5.7,4.56L5.4,52.92l2.92-1a76.79,76.79,0,0,1,12.9-3.1,40.75,40.75,0,0,0,10.3,8l.48.26.48-.26a40.75,40.75,0,0,0,10.3-8A76.79,76.79,0,0,1,55.68,52ZM11,17c9-.18,16.16-2.78,21-7.55C36.7,14,44.4,16.79,53,17a48.73,48.73,0,0,1-4.57,19.88,74.28,74.28,0,0,0-32.84,0A48.73,48.73,0,0,1,11,17ZM32,54.86a38.82,38.82,0,0,1-8.3-6.35,72,72,0,0,1,16.6,0A38.82,38.82,0,0,1,32,54.86ZM32,46a75.91,75.91,0,0,0-21.45,3.13l3.81-5.34-4.28-3.43a73.18,73.18,0,0,1,43.84,0l-4.28,3.43,3.81,5.34A75.91,75.91,0,0,0,32,46Z">
  </path>
</svg>