<svg xmlns="http://www.w3.org/2000/svg" viewBox="0 0 512 512" x="0px" y="0px"><title>athlete- user- avatar- kid- boy- costume</title><g><path d="M442,160H432v-8.111A18.025,18.025,0,0,0,448,134V90a18.025,18.025,0,0,0-16.464-17.935A38.059,38.059,0,0,0,394,40H371.949a91.8,91.8,0,0,1,3.487-13.049A8,8,0,0,0,368,16c-14.977,0-29.5,6.058-39.25,13C315.593,17.117,297.557,16,280,16H192V32h88c20.743,0,33.517,2.041,41.6,12.805a8,8,0,0,0,12.053.852c4.947-4.946,13.712-9.937,23.36-12.28-.845,3.682-1.728,8.172-2.511,13.449A8,8,0,0,0,362.419,56H394a22.039,22.039,0,0,1,21.168,16H96.048A42.052,42.052,0,0,1,138,32h38V16H138A58.069,58.069,0,0,0,80.031,72.107,18.026,18.026,0,0,0,64,90v44a18.025,18.025,0,0,0,16,17.889V160H70a38.043,38.043,0,0,0-38,38v20a38.043,38.043,0,0,0,38,38H80.116a68.149,68.149,0,0,0,42.918,59.253A37.877,37.877,0,0,0,112,342v26a8,8,0,0,0-8,8v40a8,8,0,0,0,8,8v8a48.055,48.055,0,0,0,48,48v8a8,8,0,0,0,8,8H344a8,8,0,0,0,8-8v-8a48.055,48.055,0,0,0,48-48v-8a8,8,0,0,0,8-8V376a8,8,0,0,0-8-8H358.777l1.114-6.685A8.056,8.056,0,0,0,360,360V320h2a22.025,22.025,0,0,1,22,22v10h16V342a37.877,37.877,0,0,0-11.034-26.747A68.149,68.149,0,0,0,431.884,256H442a38.043,38.043,0,0,0,38-38V198A38.043,38.043,0,0,0,442,160Zm-50-8h24v54.988A32.057,32.057,0,0,1,392,176ZM80,90a2,2,0,0,1,2-2H430a2,2,0,0,1,2,2v44a2,2,0,0,1-2,2H82a2,2,0,0,1-2-2Zm173.671,62H288a40.051,40.051,0,0,1-37.366,39.914A56.031,56.031,0,0,0,253.671,152ZM96,152h24v24a32.057,32.057,0,0,1-24,30.988Zm32,190a22.025,22.025,0,0,1,22-22h2v40a8.056,8.056,0,0,0,.109,1.315L153.223,368H128Zm-8,66V384h35.89l4,24Zm8,24v-8h32v40A32.036,32.036,0,0,1,128,432Zm256,0a32.036,32.036,0,0,1-32,32V424h32Zm8-48v24H352.11l4-24Zm-48-24.662-7.891,47.347A8.056,8.056,0,0,0,336,408v72H288v-4a28.032,28.032,0,0,0-28-28H232V424h56V408H224a8,8,0,0,0-8,8v40a8,8,0,0,0,8,8h36a12.013,12.013,0,0,1,12,12v4H176V408a8.056,8.056,0,0,0-.109-1.315L168,359.338V320h24.034A58.071,58.071,0,0,0,250,376h12a58.372,58.372,0,0,0,54.125-37.119A57.636,57.636,0,0,0,319.966,320H344ZM208.048,320h95.9a41.709,41.709,0,0,1-2.754,13.119A42.274,42.274,0,0,1,262,360H250A42.052,42.052,0,0,1,208.048,320ZM464,218a22.025,22.025,0,0,1-22,22H424a8,8,0,0,0-8,8v4a52.059,52.059,0,0,1-52,52H148a52.059,52.059,0,0,1-52-52v-4a8,8,0,0,0-8-8H70a22.025,22.025,0,0,1-22-22V198a22.025,22.025,0,0,1,22-22H80v40a8,8,0,0,0,8,8,48.055,48.055,0,0,0,48-48V152H236.67a40.039,40.039,0,0,1-5.923,41.586,8,8,0,0,0,4.3,12.906A56.039,56.039,0,0,0,304,152h72v24a48.055,48.055,0,0,0,48,48,8,8,0,0,0,8-8V176h10a22.025,22.025,0,0,1,22,22Z"></path><path d="M256,264a16.019,16.019,0,0,1-16-16H224a32,32,0,0,0,64,0H272A16.019,16.019,0,0,1,256,264Z"></path><path d="M184,176a40.045,40.045,0,0,0-40,40h16a24,24,0,0,1,48,0h16A40.045,40.045,0,0,0,184,176Z"></path><path d="M328,176a40.045,40.045,0,0,0-40,40h16a24,24,0,0,1,48,0h16A40.045,40.045,0,0,0,328,176Z"></path></g></svg>