<svg xmlns="http://www.w3.org/2000/svg" viewBox="0 0 35.81 35.81"><defs><style>.cls-1{fill:#fff;}</style></defs><g id="Layer_2" data-name="Layer 2"><g id="Layer_1-2" data-name="Layer 1"><path class="cls-1" d="M17.93,0V1.2A16.73,16.73,0,0,1,32.47,9.72a16.72,16.72,0,0,1,1.62,12.34A16.7,16.7,0,0,1,20.38,34.43a17.52,17.52,0,0,1-2.5.18,16.71,16.71,0,0,1-8.68-31,16.5,16.5,0,0,1,6.24-2.26,16,16,0,0,1,2.49-.19V0m0,0a18.67,18.67,0,0,0-2.67.2,17.9,17.9,0,0,0,2.62,35.61,18.54,18.54,0,0,0,2.67-.19A17.91,17.91,0,0,0,17.93,0Z"/><path class="cls-1" d="M6.61,31.26l-.44-.13a28.92,28.92,0,0,1,3.25-6.94l.38.26A28.2,28.2,0,0,0,6.61,31.26Z"/><path class="cls-1" d="M15.69,19c-1.62.59-5,2.33-7.44,7.1,0,0,6.73,0,8.23-6.41A.6.6,0,0,0,15.69,19Z"/><path class="cls-1" d="M.38,19.32l-.22-.4a29.13,29.13,0,0,1,7.21-2.61l.09.45A28.4,28.4,0,0,0,.38,19.32Z"/><path class="cls-1" d="M15.45,17.1c-1.57-.73-5.17-1.86-10.29-.24,0,0,4.76,4.77,10.35,1.29A.6.6,0,0,0,15.45,17.1Z"/><path class="cls-1" d="M11.21,9.61A28.66,28.66,0,0,0,4.4,6.42L4.52,6a29.16,29.16,0,0,1,7,3.25Z"/><path class="cls-1" d="M16.62,15.51c-.59-1.63-2.33-5-7.11-7.45,0,0,0,6.73,6.42,8.23A.59.59,0,0,0,16.62,15.51Z"/><path class="cls-1" d="M18.9,7.35A28.4,28.4,0,0,0,16.34.27l.4-.22a28.94,28.94,0,0,1,2.61,7.21Z"/><path class="cls-1" d="M18.55,15.34c.73-1.57,1.87-5.17.24-10.29,0,0-4.76,4.75-1.28,10.35A.59.59,0,0,0,18.55,15.34Z"/><path class="cls-1" d="M26.35,11.43,26,11.18a28.18,28.18,0,0,0,3.19-6.82l.44.13A28.73,28.73,0,0,1,26.35,11.43Z"/><path class="cls-1" d="M20.08,16.58c1.62-.59,5-2.33,7.44-7.1,0,0-6.73,0-8.22,6.41A.59.59,0,0,0,20.08,16.58Z"/><path class="cls-1" d="M28.17,19.24l-.09-.45a28.86,28.86,0,0,0,7.08-2.56l.22.4A29.13,29.13,0,0,1,28.17,19.24Z"/><path class="cls-1" d="M20.09,18.44c1.57.73,5.17,1.87,10.29.24,0,0-4.75-4.76-10.35-1.28A.59.59,0,0,0,20.09,18.44Z"/><path class="cls-1" d="M31.09,29.49a29.38,29.38,0,0,1-6.94-3.25l.25-.38a28.36,28.36,0,0,0,6.82,3.19Z"/><path class="cls-1" d="M19,20c.59,1.63,2.33,5,7.1,7.45,0,0,0-6.73-6.41-8.23A.59.59,0,0,0,19,20Z"/><path class="cls-1" d="M18.88,35.42a29.13,29.13,0,0,1-2.61-7.21l.45-.09a28.4,28.4,0,0,0,2.56,7.08Z"/><path class="cls-1" d="M17.06,20.13c-.73,1.57-1.87,5.17-.24,10.29,0,0,4.77-4.75,1.29-10.35A.6.6,0,0,0,17.06,20.13Z"/></g></g></svg>