<svg xmlns="http://www.w3.org/2000/svg" xmlns:xlink="http://www.w3.org/1999/xlink" version="1.1" x="0px" y="0px" viewBox="0 0 100 100" style="enable-background:new 0 0 100 100;" xml:space="preserve"><g><path d="M80.2,67.7c-0.4,0.4-1,0.4-1.4,0l-3.2-3.2v10c0,0.5-0.4,1-1,1c-0.6,0-1-0.5-1-1v-10l-3.2,3.2c-0.2,0.2-0.5,0.3-0.7,0.3   c-0.3,0-0.5-0.1-0.7-0.3c-0.4-0.4-0.4-1,0-1.4l4.9-4.9c0.1-0.1,0.2-0.2,0.3-0.2c0.2-0.1,0.5-0.1,0.8,0c0.1,0,0.2,0.1,0.3,0.2   l4.9,4.9C80.6,66.7,80.6,67.3,80.2,67.7z"></path><path d="M31,38.2c-3.5,0-6.4-2.8-6.4-6.4c0-3.5,2.8-6.3,6.4-6.3c3.5,0,6.3,2.8,6.3,6.3C37.3,35.4,34.5,38.2,31,38.2z"></path><path d="M75.6,54.6V21.2c0-1.6-1.3-3-3-3H16.2c-1.7,0-3,1.4-3,3v45.1c0,1.6,1.3,3,3,3h44.7c0.5,7.1,6.5,12.8,13.7,12.8   c7.6,0,13.8-6.2,13.8-13.8C88.3,61.1,82.7,55.1,75.6,54.6z M15.2,21.2c0-0.5,0.4-1,1-1h56.4c0.6,0,1,0.5,1,1v29.3L59,37.7   c-0.4-0.3-1-0.3-1.3,0L40.1,54.1l-8.1-8c-0.3-0.3-0.9-0.4-1.3-0.1L15.2,57.3V21.2z M74.6,80.1c-6.5,0-11.7-5.3-11.7-11.8   c0-6.5,5.3-11.8,11.7-11.8c6.5,0,11.8,5.3,11.8,11.8C86.3,74.8,81.1,80.1,74.6,80.1z"></path></g></svg>