<?xml version="1.0" encoding="UTF-8" standalone="no"?>
<svg
   xmlns:dc="http://purl.org/dc/elements/1.1/"
   xmlns:cc="http://creativecommons.org/ns#"
   xmlns:rdf="http://www.w3.org/1999/02/22-rdf-syntax-ns#"
   xmlns:svg="http://www.w3.org/2000/svg"
   xmlns="http://www.w3.org/2000/svg"
   xmlns:sodipodi="http://sodipodi.sourceforge.net/DTD/sodipodi-0.dtd"
   xmlns:inkscape="http://www.inkscape.org/namespaces/inkscape"
   inkscape:version="1.0 (4035a4f, 2020-05-01)"
   sodipodi:docname="logo-dark.svg"
   id="svg981"
   version="1.1"
   fill="none"
   viewBox="0 0 116.91336 132.00002"
   height="132.00002"
   width="116.91336">
  <metadata
     id="metadata985">
    <rdf:RDF>
      <cc:Work
         rdf:about="">
        <dc:format>image/svg+xml</dc:format>
        <dc:type
           rdf:resource="http://purl.org/dc/dcmitype/StillImage" />
        <dc:title></dc:title>
      </cc:Work>
    </rdf:RDF>
  </metadata>
  <sodipodi:namedview
     inkscape:current-layer="svg981"
     inkscape:window-maximized="0"
     inkscape:window-y="139"
     inkscape:window-x="2167"
     inkscape:cy="44"
     inkscape:cx="58.456733"
     inkscape:zoom="4.1761364"
     fit-margin-bottom="0"
     fit-margin-right="0"
     fit-margin-left="0"
     fit-margin-top="0"
     showgrid="false"
     id="namedview983"
     inkscape:window-height="1029"
     inkscape:window-width="1507"
     inkscape:pageshadow="2"
     inkscape:pageopacity="0"
     guidetolerance="10"
     gridtolerance="10"
     objecttolerance="10"
     borderopacity="1"
     bordercolor="#666666"
     pagecolor="#ffffff" />
  <path
     id="path950"
     stroke-width="10"
     stroke="#000000"
     fill="#000000"
     d="M 109.23073,5 58.456733,119.652 7.682633,5 Z" />
  <path
     id="path952"
     fill="#4f4f4f"
     d="M 49.956733,113 3.191333,7.25 h 93.5304 z" />
  <path
     id="path954"
     fill="#333333"
     d="M 57.956733,107 14.655433,12.5 H 101.25773 Z" />
  <path
     style="fill:url(#paint0_linear)"
     id="path956"
     fill="url(#paint0_linear)"
     d="m 14.621233,12.0017 h 86.429497 c 0.369,0 0.667,0.2983 0.667,0.6666 0,0.1117 -0.028,0.2184 -0.077,0.3117 l -42.667897,94.33 c -0.1516,0.335 -0.545,0.485 -0.88,0.333 -0.1566,-0.07 -0.2733,-0.195 -0.3366,-0.341 l -43.7384,-94.3553 c -0.1533,-0.3334 -0.0083,-0.7284 0.325,-0.8834 0.09,-0.0416 0.185,-0.0616 0.2784,-0.0616 V 12 Z m 38.7316,46.7833 c -0.0083,0.477 0.015,0.945 0.0684,1.418 l 1.325,-0.151 c -0.0467,-0.415 -0.0667,-0.827 -0.0584,-1.244 l -1.3333,-0.023 z m 21.5184,0.66 0.0016,-0.047 0.0034,-0.068 0.0016,-0.068 0.0017,-0.069 0.0017,-0.068 0.0016,-0.068 V 58.988 58.92 58.852 l -0.0016,-0.069 -0.0017,-0.068 -0.0017,-0.068 -0.0016,-0.067 -0.0034,-0.067 -0.0033,-0.066 -0.0033,-0.067 -0.0034,-0.067 -0.005,-0.066 -0.005,-0.067 -0.005,-0.067 -0.0066,-0.088 -1.3284,0.122 0.0067,0.071 0.005,0.059 0.0033,0.058 0.0034,0.058 0.0033,0.059 0.0033,0.058 0.0034,0.058 0.0016,0.059 0.0017,0.06 0.0017,0.058 0.0016,0.06 v 0.06 0.06 0.06 0.06 0.06 l -0.0016,0.06 -0.0017,0.06 -0.0017,0.06 -0.005,0.107 1.3317,0.055 z m -1.2267,-5.485 -0.0217,-0.04 -0.03,-0.0567 -0.0316,-0.0566 -0.0317,-0.0567 -0.0317,-0.0567 -0.0316,-0.0566 -0.0317,-0.0567 -0.0333,-0.0567 -0.0334,-0.055 -0.0333,-0.055 -0.0333,-0.055 -0.0334,-0.055 -0.035,-0.055 -0.035,-0.055 -0.035,-0.055 -0.035,-0.055 -0.035,-0.0533 -0.035,-0.0533 -0.0366,-0.0534 -0.0367,-0.0533 -0.0367,-0.0533 -0.0483,-0.0684 -1.085,0.775 0.0383,0.055 0.065,0.0934 0.0317,0.0466 0.0633,0.095 0.0617,0.095 0.03,0.0484 0.03,0.0483 0.03,0.0483 0.03,0.0484 0.0283,0.0483 0.0567,0.0983 0.0283,0.05 0.0284,0.05 0.055,0.1 0.0266,0.05 0.0484,0.09 1.1766,-0.6266 z m -3.8217,-4.12 -0.05,-0.0317 -0.055,-0.035 -0.0566,-0.0333 -0.0567,-0.0333 -0.0567,-0.0334 -0.0566,-0.0333 -0.0567,-0.0333 -0.0567,-0.0317 -0.0566,-0.0317 -0.0584,-0.0316 -0.0583,-0.0317 -0.0583,-0.0317 -0.0584,-0.03 -0.0583,-0.03 -0.0583,-0.03 -0.0584,-0.03 -0.0583,-0.03 -0.06,-0.0283 -0.06,-0.0283 -0.06,-0.0284 -0.06,-0.0283 -0.0417,-0.0183 -0.5483,1.215 0.0867,0.04 0.0516,0.025 0.0517,0.025 0.0517,0.025 0.0516,0.025 0.0517,0.0266 0.0517,0.0267 0.0516,0.0267 0.0517,0.0266 0.05,0.0267 0.05,0.0267 0.05,0.0283 0.05,0.0283 0.1,0.0567 0.0983,0.0583 0.05,0.03 0.0484,0.03 0.0483,0.03 0.05,0.0317 0.7017,-1.135 z m -5.3766,-1.63 -0.1084,-0.0033 -0.0683,-0.0017 -0.0683,-0.0017 h -0.0684 -0.0683 -0.0683 l -0.0684,0.0017 -0.0683,0.0017 -0.0683,0.0016 -0.0667,0.0017 -0.0667,0.0033 -0.0666,0.0034 -0.0667,0.0033 -0.0667,0.0033 -0.0666,0.005 -0.0667,0.005 -0.0667,0.005 -0.0666,0.005 -0.0667,0.0067 -0.0967,0.01 0.1384,1.3267 0.08,-0.0084 0.0583,-0.005 0.0583,-0.005 0.0584,-0.005 0.0583,-0.0033 0.0583,-0.0033 0.0584,-0.0034 0.0583,-0.0033 0.0583,-0.0033 0.0584,-0.0017 0.06,-0.0017 0.0583,-0.0016 0.06,-0.0017 h 0.06 0.06 0.06 0.06 0.06 l 0.06,0.0017 0.1,0.0033 0.0367,-1.3333 z m -5.4667,1.3 -0.085,0.0467 -0.0567,0.0316 -0.0566,0.0317 -0.0567,0.0317 -0.0567,0.0333 -0.055,0.0333 -0.055,0.0334 -0.055,0.0333 -0.055,0.0333 -0.055,0.035 -0.055,0.035 -0.055,0.035 -0.055,0.035 -0.0533,0.035 -0.0533,0.035 -0.0534,0.0367 -0.0533,0.0367 -0.0533,0.0366 -0.0534,0.0367 -0.0533,0.0367 -0.0783,0.0566 0.7883,1.075 0.065,-0.0466 0.0917,-0.065 0.0466,-0.0317 c 0.0467,-0.0317 0.0934,-0.0633 0.1417,-0.095 l 0.095,-0.0617 0.095,-0.0616 0.0483,-0.03 0.0484,-0.03 0.0483,-0.03 0.0483,-0.0284 0.0984,-0.0566 0.0483,-0.0284 0.05,-0.0283 0.05,-0.0283 0.0767,-0.0417 -0.64,-1.17 z m -4.0683,3.8767 -0.0567,0.095 -0.0333,0.0566 -0.0334,0.0567 -0.0333,0.0567 -0.0317,0.0566 -0.0316,0.0567 -0.0317,0.0583 -0.0317,0.0584 -0.0316,0.0583 -0.03,0.0583 -0.03,0.0584 -0.03,0.0583 -0.03,0.0583 -0.03,0.06 -0.0284,0.06 -0.0283,0.06 -0.0283,0.06 -0.0284,0.06 -0.0266,0.06 -0.0267,0.06 -0.0233,0.0517 1.2216,0.5333 0.0434,-0.0966 0.0233,-0.0534 0.025,-0.0533 0.025,-0.0517 0.05,-0.105 0.025,-0.0516 0.0267,-0.0517 0.0266,-0.0517 0.0267,-0.0516 0.0267,-0.0517 0.0266,-0.05 0.055,-0.1017 0.0284,-0.05 0.0283,-0.05 0.0283,-0.05 0.0284,-0.05 0.0283,-0.05 0.0533,-0.0883 -1.1433,-0.6867 z m 14.0416,-10.8917 c -0.3666,0.01 -0.6716,-0.2783 -0.6816,-0.6467 -0.01,-0.3666 0.2783,-0.6716 0.6466,-0.6816 1.2167,-0.0334 2.3984,0.2 3.4217,0.7416 0.64,0.34 1.2167,0.7967 1.7,1.3817 0.505,-0.7683 1.1367,-1.4083 1.8233,-1.9117 1.11,-0.815 2.375,-1.28 3.4784,-1.3583 0.3666,-0.0267 0.685,0.25 0.7116,0.6167 0.0267,0.3666 -0.25,0.685 -0.6166,0.7116 -0.87,0.0617 -1.8817,0.44 -2.7867,1.1034 -0.7867,0.5766 -1.4833,1.3633 -1.9267,2.34 -0.0533,0.1483 -0.16,0.2783 -0.31,0.3583 -0.3233,0.1733 -0.7266,0.0533 -0.9016,-0.2717 -0.44,-0.8183 -1.0617,-1.4083 -1.79,-1.795 -0.8167,-0.4333 -1.7717,-0.6183 -2.765,-0.59 z m -31.6583,1.8017 c 0.875,-0.92 1.6517,-1.8817 2.41,-2.82 1.8983,-2.35 3.68,-4.5534 6.675,-5.8134 0.34,-0.1416 0.73,0.0167 0.8717,0.3567 0.0516,0.1217 0.0633,0.25 0.0416,0.3717 -0.2533,2.5966 0.0417,4.8883 0.7234,7.2166 0.6,2.0517 1.5033,4.145 2.595,6.5 0.6716,-1.3883 1.29,-3.48 1.6183,-5.8666 0.3433,-2.495 0.3617,-5.2867 -0.2217,-7.9017 -0.0783,-0.3583 0.1467,-0.7133 0.505,-0.7917 0.2317,-0.0516 0.4617,0.025 0.6167,0.1834 l 8.1417,8.29 c 0.1866,-1.7267 0.135,-3.4767 -0.5017,-5.0967 -0.795,-2.0217 -2.5233,-3.8883 -5.885,-5.3433 -0.3367,-0.145 -0.4917,-0.5367 -0.3467,-0.8717 0.1,-0.23 0.3134,-0.375 0.5467,-0.3983 2.14,-0.2067 3.915,-0.295 5.775,0.0583 1.4467,0.275 2.9233,0.81 4.63,1.7567 -0.8433,-2.1334 -2.0333,-3.645 -3.46,-4.5917 -1.9,-1.2617 -4.2533,-1.5367 -6.7883,-0.9583 -0.3584,0.08 -0.7134,-0.145 -0.795,-0.5034 -0.0217,-0.0966 -0.0217,-0.1933 -0.0017,-0.2833 0.295,-1.3733 0.9417,-2.6417 1.9317,-3.825 0.6783,-0.81 1.5166,-1.5817 2.515,-2.32 -1.795,-0.245 -3.9617,-0.2183 -5.88,0.645 -1.7117,0.7717 -3.245,2.2283 -4.1617,4.7967 -0.1233,0.3466 -0.505,0.5266 -0.8517,0.4033 -0.0583,-0.02 -0.1116,-0.0483 -0.1583,-0.0817 -1.53,-0.89 -3.0983,-1.2266 -4.575,-1.14 -1.3783,0.08 -2.6833,0.53 -3.81,1.2417 -1.13,0.7133 -2.08,1.6867 -2.7433,2.815 -0.4884,0.83 -0.8234,1.745 -0.9617,2.6983 1.51,-1.1383 2.72,-1.8283 4.0567,-2.1783 1.6516,-0.4333 3.42,-0.325 6.1133,0.1167 0.3617,0.0583 0.6083,0.4 0.55,0.7633 -0.0417,0.2517 -0.2183,0.4467 -0.4433,0.5233 -2.3317,0.7934 -4.5667,1.855 -6.1784,3.8634 -1.4316,1.785 -2.3983,4.35 -2.5566,8.1866 z m 3.4467,-1.9867 c -1.0917,1.3517 -2.2234,2.7517 -3.6684,4.06 -0.1183,0.1133 -0.2766,0.185 -0.4533,0.1867 -0.3667,0.005 -0.6683,-0.29 -0.6717,-0.6567 -0.0766,-5.085 1.0667,-8.3767 2.8684,-10.6233 1.2266,-1.53 2.74,-2.5584 4.3766,-3.3317 -1.1983,-0.095 -2.1583,-0.0483 -3.0483,0.185 -1.4283,0.375 -2.7533,1.25 -4.675,2.8033 -0.1083,0.095 -0.2467,0.155 -0.4017,0.1634 -0.3666,0.02 -0.68,-0.2617 -0.7,-0.6284 -0.1,-1.7166 0.3534,-3.3766 1.2034,-4.8183 0.7733,-1.3117 1.8733,-2.4417 3.1816,-3.2683 1.3117,-0.8267 2.8334,-1.35 4.4467,-1.4434 1.5183,-0.0883 3.1133,0.2034 4.685,0.98 1.0783,-2.52 2.7417,-4.0116 4.5883,-4.8433 2.855,-1.2867 6.1117,-0.9567 8.285,-0.4383 v 0.0016 c 0.1634,0.0384 0.3134,0.1384 0.41,0.2934 0.195,0.31 0.1017,0.7216 -0.2083,0.9166 -1.49,0.94 -2.6783,1.9234 -3.5533,2.97 -0.6017,0.72 -1.055,1.47 -1.3567,2.2567 2.4767,-0.3533 4.785,0.0617 6.7233,1.3483 2.0267,1.345 3.6234,3.6317 4.5467,6.975 0.065,0.1867 0.0467,0.4 -0.0683,0.5784 -0.1984,0.31 -0.61,0.3983 -0.92,0.2 -2.2417,-1.4434 -4.01,-2.1784 -5.7084,-2.5 -1,-0.19 -1.9883,-0.24 -3.045,-0.2084 2.3634,1.4334 3.7184,3.1417 4.4384,4.9717 0.91,2.315 0.7816,4.78 0.39,7.12 -0.0217,0.1333 -0.085,0.2617 -0.19,0.365 -0.2617,0.2567 -0.6834,0.2533 -0.94,-0.0083 l -7.6167,-7.755 c 0.24,2.13 0.1633,4.285 -0.1083,6.2566 -0.4534,3.2867 -1.4584,6.105 -2.4484,7.4817 -0.065,0.1 -0.1583,0.1833 -0.2733,0.2367 -0.3317,0.155 -0.7283,0.0116 -0.8833,-0.32 -1.1767,-2.5034 -2.18,-4.705 -2.895,-6.855 -0.5134,2.3616 -0.8617,4.6283 -0.9934,7.0266 -0.165,3.0184 0.0117,6.2567 0.64,10.1687 l 9.505,0.028 c 0.015,0 0.03,0 0.045,0.002 v -0.002 c 1.0467,0.073 2.2217,-0.245 3.2634,-0.868 0.76,-0.455 1.445,-1.069 1.955,-1.807 0.5016,-0.725 0.8333,-1.572 0.8983,-2.507 0.075,-1.0763 -0.1983,-2.2797 -0.9667,-3.5647 -0.1883,-0.315 -0.085,-0.7233 0.23,-0.9116 0.165,-0.0984 0.355,-0.1184 0.5267,-0.0684 2.3,0.5567 4.32,1.565 5.7133,3.24 1.2984,1.5617 2.0367,3.6697 1.9317,6.4887 h 4.0217 c 0.3683,0 0.6666,0.298 0.6666,0.666 0,0.369 -0.2983,0.667 -0.6666,0.667 h -4.73 c -0.0184,0 -0.0367,0 -0.055,-0.002 -0.3667,-0.03 -0.64,-0.351 -0.61,-0.718 0.2366,-2.803 -0.3917,-4.823 -1.58,-6.252 -0.9117,-1.0963 -2.165,-1.8647 -3.6184,-2.3863 0.3934,1.0283 0.53,2.0113 0.465,2.9303 -0.0833,1.19 -0.5016,2.261 -1.1333,3.173 -0.6217,0.9 -1.45,1.643 -2.3667,2.192 -1.2716,0.76 -2.7233,1.148 -4.035,1.056 l -9.8133,-0.028 c -0.0317,0.01 -0.065,0.018 -0.0983,0.023 -0.1117,0.019 -0.22,0.009 -0.32,-0.025 l -3.1084,-0.008 c -0.605,-0.002 -1.15,-0.097 -1.5866,-0.4 -0.475,-0.33 -0.7767,-0.852 -0.825,-1.673 -0.2367,-4.015 0.3166,-8.6637 1.2833,-13.022 0.8783,-3.96 2.1033,-7.69 3.3883,-10.49 -1.7033,1.1667 -2.9883,2.755 -4.335,4.4233 z m 5.57,-0.02 c -0.21,-0.9817 -0.3484,-1.9717 -0.4067,-2.99 -1.1067,2.5983 -2.1467,5.885 -2.9183,9.365 -0.9434,4.2467 -1.4834,8.767 -1.2517,12.657 0.0217,0.358 0.115,0.558 0.2567,0.658 0.18,0.125 0.475,0.165 0.8266,0.167 l 2.5317,0.006 c -0.6167,-3.913 -0.7883,-7.1797 -0.6217,-10.238 0.18,-3.2683 0.745,-6.2817 1.57,-9.58 0.0034,-0.0167 0.0084,-0.0317 0.0134,-0.0467 z m 20.0966,25.102 c 0.3684,0 0.6667,0.298 0.6667,0.666 0,0.369 -0.2983,0.667 -0.6667,0.667 h -16.555 c -0.3683,0 -0.6666,-0.298 -0.6666,-0.667 0,-0.368 0.2983,-0.666 0.6666,-0.666 z m -13.0516,5.733 h 9.8166 v 1.333 h -9.8166 z m 7.48,6.537 h -5.115 v -1.334 h 5.115 z M 100.02073,13.3333 H 15.664533 l 42.695,92.1037 z" />
  <defs
     id="defs979">
    <linearGradient
       gradientTransform="translate(-9.043267,-44)"
       gradientUnits="userSpaceOnUse"
       y2="55.8517"
       x2="22.8811"
       y1="151.85201"
       x1="66.881104"
       id="paint0_linear">
      <stop
         id="stop958"
         stop-color="#7400B8" />
      <stop
         id="stop960"
         stop-color="#6930C3"
         offset="0.109375" />
      <stop
         id="stop962"
         stop-color="#5E60CE"
         offset="0.223958" />
      <stop
         id="stop964"
         stop-color="#5390D9"
         offset="0.354167" />
      <stop
         id="stop966"
         stop-color="#4EA8DE"
         offset="0.46875" />
      <stop
         id="stop968"
         stop-color="#48BFE3"
         offset="0.604167" />
      <stop
         id="stop970"
         stop-color="#56CFE1"
         offset="0.729167" />
      <stop
         id="stop972"
         stop-color="#64DFDF"
         offset="0.838542" />
      <stop
         id="stop974"
         stop-color="#72EFDD"
         offset="0.916667" />
      <stop
         id="stop976"
         stop-color="#80FFDB"
         offset="1" />
    </linearGradient>
  </defs>
</svg>
